<svg width="32" height="32" viewBox="0 0 32 32" fill="none" xmlns="http://www.w3.org/2000/svg">
<g id="twitter-brands">
<path id="Vector" d="M28.7106 9.48223C28.7309 9.76648 28.7309 10.0508 28.7309 10.335C28.7309 19.005 22.132 28.9949 10.0711 28.9949C6.35531 28.9949 2.90356 27.9187 0 26.0508C0.527937 26.1117 1.0355 26.132 1.58375 26.132C4.64969 26.132 7.47206 25.0965 9.72587 23.33C6.84262 23.269 4.42637 21.3807 3.59387 18.7817C4 18.8426 4.40606 18.8832 4.8325 18.8832C5.42131 18.8832 6.01019 18.802 6.55837 18.6599C3.55331 18.0507 1.29944 15.4112 1.29944 12.2234V12.1422C2.1725 12.6295 3.18781 12.934 4.26387 12.9746C2.49737 11.7969 1.34006 9.78679 1.34006 7.51267C1.34006 6.29442 1.66487 5.17767 2.23344 4.20304C5.46187 8.18273 10.3147 10.7817 15.7562 11.066C15.6547 10.5787 15.5938 10.0711 15.5938 9.56348C15.5938 5.94923 18.5177 3.0051 22.1522 3.0051C24.0405 3.0051 25.7461 3.79698 26.9441 5.07617C28.4262 4.79192 29.8476 4.24367 31.1065 3.49242C30.6191 5.01529 29.5836 6.29448 28.2232 7.1066C29.5431 6.96454 30.8222 6.59898 31.9999 6.09142C31.1066 7.39085 29.9898 8.54817 28.7106 9.48223Z" fill="#14AED0"/>
</g>
</svg>
